<?xml version="1.0" encoding="utf-8"?>
<!-- Generator: Adobe Illustrator 22.1.0, SVG Export Plug-In . SVG Version: 6.00 Build 0)  -->
<svg version="1.1" id="Layer_1" xmlns="http://www.w3.org/2000/svg" xmlns:xlink="http://www.w3.org/1999/xlink" x="0px" y="0px"
	 viewBox="0 0 100 100" style="enable-background:new 0 0 100 100;" xml:space="preserve">
<path d="M50,1c27.1,0,49,21.9,49,49S77.1,99,50,99S1,77.1,1,50S22.9,1,50,1z M93.5,52.7H66.4c0.7,11.1,5.6,21.4,13.5,28.9
	C87.9,74.1,92.8,63.8,93.5,52.7z M66.4,47.3h27.1c-0.7-11.1-5.6-21.4-13.5-28.9C72,25.9,67.1,36.2,66.4,47.3z M6.5,52.7
	c0.7,11.1,5.6,21.4,13.5,28.9c8-7.5,12.8-17.8,13.5-28.9H6.5z M6.5,47.3h27.1C32.9,36.2,28,25.9,20.1,18.4
	C12.1,25.9,7.2,36.2,6.5,47.3z M61,52.7H39c-0.7,12.4-6,23.9-14.8,32.4c7.2,5.3,16.1,8.4,25.7,8.4s18.5-3.1,25.7-8.4
	C67,76.6,61.6,65.1,61,52.7z M39,47.3H61c0.7-12.4,6-23.9,14.8-32.4C68.5,9.6,59.6,6.4,50,6.4s-18.5,3.1-25.7,8.4
	C33,23.4,38.4,34.9,39,47.3z"/>
</svg>
