<?xml version="1.0" encoding="utf-8"?>
<!-- Generator: Adobe Illustrator 22.1.0, SVG Export Plug-In . SVG Version: 6.00 Build 0)  -->
<svg version="1.1" id="Layer_1" xmlns="http://www.w3.org/2000/svg" xmlns:xlink="http://www.w3.org/1999/xlink" x="0px" y="0px"
	 viewBox="0 0 100 100" style="enable-background:new 0 0 100 100;" xml:space="preserve">
<path d="M1.5,48.9C9.5,30.1,28.7,17.5,50,17.5s40.5,12.6,48.5,31.4L99,50l-0.5,1.1C90.5,69.9,71.3,82.5,50,82.5S9.5,69.9,1.5,51.1
	L1,50L1.5,48.9z M50,77.1c18.7,0,35.6-10.9,43.1-27.1C85.6,33.8,68.7,22.9,50,22.9S14.4,33.8,6.9,50C14.4,66.2,31.3,77.1,50,77.1z
	 M50,63.5c-7.5,0-13.5-6.1-13.5-13.5S42.5,36.5,50,36.5S63.5,42.5,63.5,50S57.5,63.5,50,63.5z M50,58.1c4.5,0,8.1-3.6,8.1-8.1
	s-3.6-8.1-8.1-8.1s-8.1,3.6-8.1,8.1S45.5,58.1,50,58.1z"/>
</svg>
