<svg xmlns="http://www.w3.org/2000/svg" viewBox="0 0 100 100"><title>Package</title><g><path d="M45,15c0-.33.39.56-7.1-14.42C37.49-.25,39.34,0,11,0c-.88,0-.4-.43-7.89,14.55C3,14.87,3,14.34,3,47a1,1,0,0,0,1,1H44a1,1,0,0,0,1-1C45,4.73,45.06,17.38,45,15Zm-2.61-1H29.93L29.07,2h7.31ZM24,23.88c-2.27-1.13-1.53-1.09-4-.27V16h8v7.61C25.54,22.79,26.27,22.75,24,23.88ZM27.07,2l.86,12H20.15L21.87,2ZM11.62,2h8.23L18.13,14H5.62ZM43,46H5V16H18c0,9.76-.07,9.16.17,9.53A1.11,1.11,0,0,0,19,26c.24,0,2.66-.83,2.92-.92,2.47,1.24,1.74,1.21,4.16,0,2.79.93,2.7.92,2.92.92a1,1,0,0,0,1-.84c0-.28,0,1.06,0-9.16H43Z"></path><path d="M32,44h8a1,1,0,0,0,1-1V37a1,1,0,0,0-1-1H32a1,1,0,0,0-1,1v6A1,1,0,0,0,32,44Zm1-6h6v4H33Z"></path><path d="M8,41h6a1,1,0,0,0,0-2H8A1,1,0,0,0,8,41Z"></path><path d="M16,42H8a1,1,0,0,0,0,2h8A1,1,0,0,0,16,42Z"></path></g></svg>