<svg xmlns="http://www.w3.org/2000/svg" viewBox="0 0 100 100"><title>Place</title><g><path d="M34,15A10,10,0,1,0,24,25,10,10,0,0,0,34,15ZM16,15a8,8,0,1,1,8,8A8,8,0,0,1,16,15Z"></path><path d="M30.49,35.33C34.64,28.17,39,19.55,39,15A15,15,0,0,0,9,15c0,4.55,4.36,13.17,8.51,20.33C9.09,39.18,13.13,48,24,48S38.84,39.15,30.49,35.33ZM24,2A13,13,0,0,1,37,15c0,4-4.54,13.68-12.16,25.82a1,1,0,0,1-1.68,0C15.54,28.68,11,19,11,15A13,13,0,0,1,24,2Zm0,44c-8.08,0-12.55-5.85-5.47-8.93,1,1.76,2,3.4,2.93,4.81a3,3,0,0,0,5.08,0c.89-1.41,1.89-3.05,2.93-4.81C36.55,40.15,32.08,46,24,46Z"></path><path d="M28,19.2c1-4.81.77-4.2,1-4.2a1,1,0,0,0,0-2c-.62,0-.19.41-2.17-2.55a1,1,0,0,0-1.66,1.1l1,1.45H21.87l1-1.45a1,1,0,0,0-1.66-1.1C19.2,13.4,19.62,13,19,13a1,1,0,1,0,.18,2L20,19.2a1,1,0,0,0,1,.8h6A1,1,0,0,0,28,19.2ZM26.18,18H21.82l-.6-3h5.56Z"></path></g></svg>