<svg xmlns="http://www.w3.org/2000/svg" viewBox="0 0 100 100"><title>Search</title><g><path d="M26.88,25.43A13,13,0,1,0,17,30C21.16,30,25.22,27.79,26.88,25.43ZM6,17a11,11,0,1,1,18.52,8A11,11,0,0,1,6,17Z"></path><path d="M47.71,40.29,37.12,29.71a3,3,0,0,0-2.58-.84l-3-3a17,17,0,1,0-5.67,5.67l3,3a3,3,0,0,0,.84,2.58C41.23,48.64,40.41,48,41,48s.29.13,6.71-6.29A1,1,0,0,0,47.71,40.29ZM2,17A15,15,0,1,1,17,32,15,15,0,0,1,2,17ZM30.34,27.5l2.37,2.38-2.83,2.83L27.5,30.34A16.59,16.59,0,0,0,30.34,27.5ZM41,45.59l-9.88-9.88a1,1,0,0,1,0-1.42c3.35-3.35,3.32-3.46,3.88-3.46S34.85,30.26,45.59,41Z"></path><path d="M21.8,15.13c-.62,0-.18.42-2.16-2.55A1,1,0,0,0,18,13.69l1,1.44H14.67l1-1.44A1,1,0,0,0,14,12.58c-2,3-1.55,2.55-2.17,2.55a1,1,0,1,0,.18,2l.84,4.2a1,1,0,0,0,1,.8h6a1,1,0,0,0,1-.8c1-4.8.77-4.2,1-4.2A1,1,0,0,0,21.8,15.13Zm-2.82,5H14.62l-.6-3h5.56Z"></path></g></svg>