<svg xmlns="http://www.w3.org/2000/svg" viewBox="0 0 19 14" x="0px" y="0px"><path fill-rule="evenodd" d="M54.0433174,748.601905 C54.3516281,748.535155 54.6717086,748.5 55,748.5 C57.4852814,748.5 59.5,750.514719 59.5,753 C59.5,755.485281 57.4852814,757.5 55,757.5 C53.7805863,757.5 52.6744565,757.014974 51.8640078,756.227318 C50.7838813,757.027064 49.4471707,757.5 48,757.5 C44.4101491,757.5 41.5,754.589851 41.5,751 C41.5,747.410149 44.4101491,744.5 48,744.5 C50.7428864,744.5 53.088964,746.19894 54.0433174,748.601905 Z M53.0940585,748.922376 C52.2744049,746.914758 50.3024196,745.5 48,745.5 C44.9624339,745.5 42.5,747.962434 42.5,751 C42.5,754.037566 44.9624339,756.5 48,756.5 C49.2057738,756.5 50.3209227,756.111988 51.2273978,755.454014 C50.7673465,754.748212 50.5,753.905327 50.5,753 C50.5,751.195995 51.5615456,749.639928 53.0940585,748.922376 Z M52.6230971,755.569134 C53.2472752,756.146887 54.0824006,756.5 55,756.5 C56.9329966,756.5 58.5,754.932997 58.5,753 C58.5,751.067003 56.9329966,749.5 55,749.5 C54.7745195,749.5 54.5540191,749.521322 54.3404049,749.562059 C54.4448627,750.024617 54.5,750.50587 54.5,751 C54.5,752.781201 53.7835459,754.395065 52.6230971,755.569134 Z M53.3884098,749.892293 C52.2664021,750.475328 51.5,751.648163 51.5,753 C51.5,753.652467 51.6785355,754.263235 51.9894187,754.786115 C52.9255971,753.799987 53.5,752.467073 53.5,751 C53.5,750.620564 53.4615771,750.250102 53.3884098,749.892293 Z" transform="translate(-41 -744)"></path></svg>  