<?xml version="1.0" encoding="utf-8"?>
<!-- Generator: Adobe Illustrator 22.1.0, SVG Export Plug-In . SVG Version: 6.00 Build 0)  -->
<svg version="1.1" id="Layer_1" xmlns="http://www.w3.org/2000/svg" xmlns:xlink="http://www.w3.org/1999/xlink" x="0px" y="0px"
	 viewBox="0 0 100 100" style="enable-background:new 0 0 100 100;" xml:space="preserve">
<path d="M79.9,1C90.5,1,99,9.5,99,20.1s-8.5,19.1-19.1,19.1s-19.1-8.5-19.1-19.1S69.4,1,79.9,1z M79.9,6.4
	c-7.5,0-13.6,6.1-13.6,13.6s6.1,13.6,13.6,13.6s13.6-6.1,13.6-13.6S87.5,6.4,79.9,6.4z M20.1,1c10.5,0,19.1,8.5,19.1,19.1
	s-8.5,19.1-19.1,19.1S1,30.6,1,20.1S9.5,1,20.1,1z M20.1,6.4c-7.5,0-13.6,6.1-13.6,13.6s6.1,13.6,13.6,13.6s13.6-6.1,13.6-13.6
	S27.6,6.4,20.1,6.4z M79.9,60.9c10.5,0,19.1,8.5,19.1,19.1S90.5,99,79.9,99s-19.1-8.5-19.1-19.1S69.4,60.9,79.9,60.9z M79.9,66.3
	c-7.5,0-13.6,6.1-13.6,13.6s6.1,13.6,13.6,13.6s13.6-6.1,13.6-13.6S87.5,66.3,79.9,66.3z M20.1,60.9c10.5,0,19.1,8.5,19.1,19.1
	S30.6,99,20.1,99S1,90.5,1,79.9S9.5,60.9,20.1,60.9z M20.1,66.3c-7.5,0-13.6,6.1-13.6,13.6s6.1,13.6,13.6,13.6s13.6-6.1,13.6-13.6
	S27.6,66.3,20.1,66.3z"/>
</svg>
