<?xml version="1.0" encoding="utf-8"?>
<!-- Generator: Adobe Illustrator 22.1.0, SVG Export Plug-In . SVG Version: 6.00 Build 0)  -->
<svg version="1.1" id="Layer_1" xmlns="http://www.w3.org/2000/svg" xmlns:xlink="http://www.w3.org/1999/xlink" x="0px" y="0px"
	 viewBox="0 0 100 100" style="enable-background:new 0 0 100 100;" xml:space="preserve">
<style type="text/css">
	.st0{fill:#FFFFFF;}
</style>
<path class="st0" d="M42.3,68.3c10.4,4.3,17.7,15.2,17.7,28V99h-5v-2.7c0-13.8-10.2-24.9-22.6-24.9S9.8,82.5,9.8,96.3V99h-5v-2.7
	c0-12.7,7.3-23.6,17.7-28c-4.6-3.2-7.7-8.5-7.7-14.5c0-9.7,7.9-17.6,17.6-17.6S50,44.1,50,53.8C50,59.8,47,65.1,42.3,68.3z
	 M32.4,41.2c-6.9,0-12.6,5.6-12.6,12.6s5.6,12.6,12.6,12.6S45,60.7,45,53.8S39.3,41.2,32.4,41.2z M77.5,33.1
	c10.4,4.3,17.7,15.2,17.7,28v2.7h-5v-2.7c0-13.8-10.2-24.9-22.6-24.9c-9.7,0-17.6-7.9-17.6-17.6S57.9,1,67.6,1s17.6,7.9,17.6,17.6
	C85.2,24.6,82.1,30,77.5,33.1z M67.6,6C60.7,6,55,11.7,55,18.6s5.6,12.6,12.6,12.6s12.6-5.6,12.6-12.6S74.5,6,67.6,6z"/>
</svg>
