<svg xmlns="http://www.w3.org/2000/svg" viewBox="0 0 18 18" x="0px" y="0px"><path fill-rule="evenodd" d="M350,2259 C345.029437,2259 341,2254.97056 341,2250 C341,2245.02944 345.029437,2241 350,2241 C354.970563,2241 359,2245.02944 359,2250 C359,2254.97056 354.970563,2259 350,2259 Z M350,2242 C345.581722,2242 342,2245.58172 342,2250 C342,2254.41828 345.581722,2258 350,2258 C351.020851,2258 352.013471,2257.80882 352.938487,2257.44328 C350.509053,2255.79024 349,2253.02834 349,2250 C349,2246.97166 350.509053,2244.20976 352.938487,2242.55672 C352.013471,2242.19118 351.020851,2242 350,2242 Z M350,2250 C350,2252.8938 351.549566,2255.51327 354,2256.92989 C356.450434,2255.51327 358,2252.8938 358,2250 C358,2247.1062 356.450434,2244.48673 354,2243.07011 C351.549566,2244.48673 350,2247.1062 350,2250 Z" transform="translate(-341 -2241)"></path></svg>